<svg width="70" height="70" viewBox="0 0 70 70" fill="none" xmlns="http://www.w3.org/2000/svg">
<path fill-rule="evenodd" clip-rule="evenodd" d="M35 0C15.6943 0 0 15.6943 0 35C0 54.3057 15.6943 70 35 70C54.2909 70 70 54.3057 70 35C70 15.6943 54.2909 0 35 0Z" fill="white"/>
<path fill-rule="evenodd" clip-rule="evenodd" d="M52.6553 9.89813C49.9802 16.7495 43.9016 18.1763 35.1033 18.1763C34.1522 18.1763 33.2159 18.1614 32.3241 18.1465C31.4473 18.1317 30.6299 18.1168 29.8125 18.1168C29.0991 18.1168 28.3708 18.1317 27.6575 18.1614C28.891 15.1296 30.8677 13.0786 33.6617 11.8302C37.5704 10.0913 42.6532 10.0765 47.1267 10.0616C49.0587 10.0468 50.9314 10.0319 52.6553 9.89813Z" fill="#008F32"/>
<path fill-rule="evenodd" clip-rule="evenodd" d="M55.3907 12.0978C51.4375 20.7029 42.6392 21.5649 35.0893 21.5649C33.4396 21.5649 31.8493 21.5203 30.378 21.5203L28.4757 28.9513C38.2103 21.015 51.0808 28.877 49.7135 40.8558C48.792 48.9258 43.0404 54.2018 36.947 55.7178C30.3186 57.3675 22.9767 54.9004 19.6922 48.1381C19.3504 47.4248 18.7411 45.998 18.5033 45.2252L25.4884 43.4269C25.6073 43.8282 25.8154 44.2146 26.0383 44.5713C30.7198 52.1212 40.2018 48.3462 41.2718 40.5139C42.3568 32.5479 31.1954 28.3122 26.0977 37.6159L19.9003 34.9704L19.7963 34.9258L22.7835 22.9322C22.9619 22.0851 23.5861 19.6923 23.6901 19.3059C27.0638 6.88125 38.0022 6.68804 46.7559 6.65832C43.1296 5.15725 39.1614 4.31012 34.9852 4.31012C18.0425 4.31012 4.31006 18.0426 4.31006 34.9853C4.31006 51.928 18.0425 65.6604 34.9852 65.6604C51.9279 65.6604 65.6604 51.928 65.6604 34.9853C65.6604 25.8897 61.6922 17.7156 55.3907 12.0978Z" fill="#EB2316"/>
</svg>
