<svg width="86" height="91" viewBox="0 0 86 91" fill="none" xmlns="http://www.w3.org/2000/svg">
<rect x="0.796387" y="-90" width="84.533" height="181" rx="42.2665" fill="url(#paint0_linear)"/>
<path fill-rule="evenodd" clip-rule="evenodd" d="M43.6666 11.4396C24.0163 11.4396 8.04199 27.4139 8.04199 47.0642C8.04199 66.7145 24.0163 82.6888 43.6666 82.6888C63.3017 82.6888 79.2912 66.7145 79.2912 47.0642C79.2912 27.4139 63.3017 11.4396 43.6666 11.4396Z" fill="white"/>
<path d="M50.4931 36.2188L43.0735 43.7035L35.6539 36.2188C31.5535 32.1184 31.5535 25.4148 35.6539 21.3144C39.7542 17.2141 46.3928 17.2141 50.4931 21.3144C54.5934 25.4798 54.5934 32.1184 50.4931 36.2188Z" fill="#5FAF2D"/>
<path d="M35.6539 57.1759L43.0735 49.7563L50.4931 57.241C54.5934 61.3413 54.5934 68.045 50.4931 72.1454C46.3928 76.2457 39.7542 76.2457 35.6539 72.1454C31.5535 67.98 31.5535 61.3413 35.6539 57.1759Z" fill="#005A28"/>
<path d="M53.5519 54.1821L46.1323 46.6974L53.5519 39.2127C57.6523 35.1123 64.2909 35.1123 68.3912 39.2127C72.4915 43.313 72.4915 50.0167 68.3912 54.117C64.2909 58.2824 57.6523 58.2824 53.5519 54.1821Z" fill="#1EAF37"/>
<path d="M32.6598 39.2777L40.0795 46.7624L32.6598 54.182C28.5595 58.2824 21.9209 58.2824 17.8206 54.182C13.7203 50.0817 13.7203 43.378 17.8206 39.2777C21.9209 35.1774 28.5595 35.1774 32.6598 39.2777Z" fill="#AAE641"/>
<defs>
<linearGradient id="paint0_linear" x1="-14.4665" y1="12.7297" x2="105.758" y2="12.7297" gradientUnits="userSpaceOnUse">
<stop offset="0.0810811" stop-color="#B58840"/>
<stop offset="0.494792" stop-color="#F2E996"/>
<stop offset="1" stop-color="#B58840"/>
</linearGradient>
</defs>
</svg>
