<svg width="85" height="91" viewBox="0 0 85 91" fill="none" xmlns="http://www.w3.org/2000/svg">
<rect y="-90" width="84.533" height="181" rx="42.2665" fill="url(#paint0_linear)"/>
<path fill-rule="evenodd" clip-rule="evenodd" d="M42.8705 11.4396C23.2202 11.4396 7.24585 27.4139 7.24585 47.0642C7.24585 66.7145 23.2202 82.6888 42.8705 82.6888C62.5056 82.6888 78.4951 66.7145 78.4951 47.0642C78.4951 27.4139 62.5056 11.4396 42.8705 11.4396Z" fill="white"/>
<path fill-rule="evenodd" clip-rule="evenodd" d="M60.841 21.5144C58.1181 28.488 51.931 29.9402 42.9757 29.9402C42.0076 29.9402 41.0546 29.9251 40.1469 29.91C39.2544 29.8948 38.4224 29.8797 37.5904 29.8797C36.8643 29.8797 36.1231 29.8948 35.397 29.9251C36.6525 26.8391 38.6645 24.7516 41.5084 23.4809C45.4868 21.711 50.6603 21.6959 55.2136 21.6808C57.1802 21.6656 59.0862 21.6505 60.841 21.5144Z" fill="#008F32"/>
<path fill-rule="evenodd" clip-rule="evenodd" d="M63.6253 23.7533C59.6015 32.5119 50.6462 33.3893 42.9615 33.3893C41.2824 33.3893 39.6638 33.3439 38.1662 33.3439L36.2299 40.9075C46.1383 32.8296 59.2384 40.8319 57.8467 53.0244C56.9088 61.2385 51.0546 66.6087 44.8524 68.1517C38.1057 69.8308 30.6329 67.3197 27.2897 60.4368C26.9418 59.7107 26.3216 58.2585 26.0796 57.4718L33.1894 55.6414C33.3104 56.0499 33.5222 56.4432 33.7491 56.8062C38.5141 64.4909 48.1653 60.6486 49.2545 52.6765C50.3587 44.5683 38.9982 40.2571 33.8096 49.7267L27.5015 47.0341L27.3956 46.9887L30.4362 34.781C30.6177 33.9188 31.2531 31.4833 31.359 31.09C34.7928 18.4436 45.9265 18.2469 54.8364 18.2167C51.1454 16.6888 47.1064 15.8266 42.8556 15.8266C25.6106 15.8266 11.6331 29.8041 11.6331 47.0492C11.6331 64.2942 25.6106 78.2718 42.8556 78.2718C60.1007 78.2718 74.0782 64.2942 74.0782 47.0492C74.0782 37.7913 70.0393 29.4713 63.6253 23.7533Z" fill="#EB2316"/>
<defs>
<linearGradient id="paint0_linear" x1="-15.2629" y1="12.7297" x2="104.962" y2="12.7297" gradientUnits="userSpaceOnUse">
<stop offset="0.0810811" stop-color="#B58840"/>
<stop offset="0.494792" stop-color="#F2E996"/>
<stop offset="1" stop-color="#B58840"/>
</linearGradient>
</defs>
</svg>
