<svg width="86" height="85" viewBox="0 0 86 85" fill="none" xmlns="http://www.w3.org/2000/svg">
<rect x="-95" y="84.533" width="84.533" height="181" rx="42.2665" transform="rotate(-90 -95 84.533)" fill="url(#paint0_linear)"/>
<path fill-rule="evenodd" clip-rule="evenodd" d="M42.8702 6.43964C23.22 6.43964 7.24561 22.414 7.24561 42.0642C7.24561 61.7145 23.22 77.6889 42.8702 77.6889C62.5054 77.6889 78.4948 61.7145 78.4948 42.0642C78.4948 22.414 62.5054 6.43964 42.8702 6.43964Z" fill="white"/>
<path fill-rule="evenodd" clip-rule="evenodd" d="M60.8407 16.5144C58.1178 23.4881 51.9308 24.9403 42.9755 24.9403C42.0073 24.9403 41.0543 24.9251 40.1467 24.91C39.2542 24.8949 38.4222 24.8798 37.5902 24.8798C36.8641 24.8798 36.1228 24.8949 35.3967 24.9251C36.6523 21.8392 38.6642 19.7516 41.5081 18.4809C45.4866 16.7111 50.6601 16.6959 55.2134 16.6808C57.1799 16.6657 59.086 16.6505 60.8407 16.5144Z" fill="#008F32"/>
<path fill-rule="evenodd" clip-rule="evenodd" d="M63.6251 18.7533C59.6012 27.512 50.6459 28.3894 42.9613 28.3894C41.2822 28.3894 39.6636 28.344 38.166 28.344L36.2297 35.9076C46.138 27.8297 59.2382 35.832 57.8465 48.0245C56.9086 56.2386 51.0544 61.6087 44.8522 63.1517C38.1055 64.8308 30.6326 62.3197 27.2895 55.4368C26.9416 54.7107 26.3213 53.2585 26.0793 52.4719L33.1891 50.6415C33.3101 51.0499 33.5219 51.4433 33.7488 51.8063C38.5139 59.4909 48.1651 55.6486 49.2542 47.6766C50.3585 39.5684 38.998 35.2571 33.8093 44.7268L27.5013 42.0341L27.3954 41.9887L30.436 29.7811C30.6175 28.9188 31.2528 26.4833 31.3587 26.09C34.7926 13.4437 45.9262 13.247 54.8362 13.2168C51.1451 11.6889 47.1062 10.8267 42.8554 10.8267C25.6104 10.8267 11.6328 24.8042 11.6328 42.0493C11.6328 59.2943 25.6104 73.2718 42.8554 73.2718C60.1004 73.2718 74.078 59.2943 74.078 42.0493C74.078 32.7914 70.039 24.4714 63.6251 18.7533Z" fill="#EB2316"/>
<defs>
<linearGradient id="paint0_linear" x1="-110.263" y1="187.263" x2="9.96177" y2="187.263" gradientUnits="userSpaceOnUse">
<stop offset="0.0810811" stop-color="#B58840"/>
<stop offset="0.494792" stop-color="#F2E996"/>
<stop offset="1" stop-color="#B58840"/>
</linearGradient>
</defs>
</svg>
