<svg width="86" height="85" viewBox="0 0 86 85" fill="none" xmlns="http://www.w3.org/2000/svg">
<rect x="181" width="84.533" height="181" rx="42.2665" transform="rotate(90 181 0)" fill="url(#paint0_linear)"/>
<path fill-rule="evenodd" clip-rule="evenodd" d="M43.6668 7.20599C24.0166 7.20599 8.04224 23.1803 8.04224 42.8306C8.04224 62.4809 24.0166 78.4552 43.6668 78.4552C63.302 78.4552 79.2915 62.4809 79.2915 42.8306C79.2915 23.1803 63.302 7.20599 43.6668 7.20599Z" fill="white"/>
<path d="M50.4933 31.9852L43.0737 39.4699L35.6541 31.9852C31.5538 27.8849 31.5538 21.1812 35.6541 17.0809C39.7544 12.9805 46.393 12.9805 50.4933 17.0809C54.5937 21.2463 54.5937 27.8849 50.4933 31.9852Z" fill="#5FAF2D"/>
<path d="M35.6541 52.9423L43.0737 45.5227L50.4933 53.0074C54.5937 57.1077 54.5937 63.8114 50.4933 67.9117C46.393 72.0121 39.7544 72.0121 35.6541 67.9117C31.5538 63.7463 31.5538 57.1077 35.6541 52.9423Z" fill="#005A28"/>
<path d="M53.5522 49.9485L46.1326 42.4638L53.5522 34.979C57.6525 30.8787 64.2911 30.8787 68.3914 34.979C72.4917 39.0794 72.4917 45.7831 68.3914 49.8834C64.2911 54.0488 57.6525 54.0488 53.5522 49.9485Z" fill="#1EAF37"/>
<path d="M32.6601 35.0442L40.0797 42.5289L32.6601 49.9485C28.5598 54.0488 21.9212 54.0488 17.8208 49.9485C13.7205 45.8482 13.7205 39.1445 17.8208 35.0442C21.9212 30.9439 28.5598 30.9439 32.6601 35.0442Z" fill="#AAE641"/>
<defs>
<linearGradient id="paint0_linear" x1="165.737" y1="102.73" x2="285.962" y2="102.73" gradientUnits="userSpaceOnUse">
<stop offset="0.0810811" stop-color="#B58840"/>
<stop offset="0.494792" stop-color="#F2E996"/>
<stop offset="1" stop-color="#B58840"/>
</linearGradient>
</defs>
</svg>
