<svg width="224" height="29" viewBox="0 0 224 29" fill="none" xmlns="http://www.w3.org/2000/svg">
<g clip-path="url(#clip0)">
<path d="M15.6444 7.85541L12.4444 11.1629L9.18514 7.91447C7.40736 6.08352 7.40736 3.18942 9.18514 1.41753C10.9629 -0.413428 13.8666 -0.413428 15.7037 1.41753C17.4814 3.13036 17.4814 6.08352 15.6444 7.85541Z" fill="white"/>
<path d="M9.18515 17.0693L12.4444 13.8208L15.7037 17.0693C17.4814 18.8412 17.4814 21.7943 15.7037 23.5662C13.9259 25.3972 11.0222 25.3972 9.18515 23.5662C7.34811 21.7353 7.34811 18.8412 9.18515 17.0693Z" fill="white"/>
<path d="M17.0076 15.7108L13.7483 12.4623L17.0076 9.21386C18.7853 7.3829 21.689 7.3829 23.5261 9.21386C25.3038 11.0448 25.3038 13.9389 23.5261 15.7108C21.689 17.5418 18.7853 17.5418 17.0076 15.7108Z" fill="white"/>
<path d="M7.8228 9.21386L11.0821 12.4623L7.8228 15.7108C6.04502 17.5418 3.14132 17.5418 1.30428 15.7108C-0.473497 13.8798 -0.473497 10.9857 1.30428 9.21386C3.14132 7.3829 6.04502 7.3829 7.8228 9.21386Z" fill="white"/>
<path d="M189.867 7.67822H176.415V11.4583H181.156V22.9165H185.067V11.4583H189.867V7.67822Z" fill="white"/>
<path d="M60.3853 19.7862C61.926 19.7862 63.1112 19.1365 63.763 18.2505L66.9038 20.0815C65.4816 22.1487 63.2297 23.3299 60.2668 23.3299C55.1705 23.3299 51.9705 19.8452 51.9705 15.2974C51.9705 10.7495 55.2297 7.26477 59.9705 7.26477C64.4742 7.26477 67.6149 10.8086 67.6149 15.2974C67.6149 15.888 67.5556 16.4196 67.4371 16.8921H56.1186C56.6519 18.9002 58.3112 19.7862 60.3853 19.7862ZM63.763 13.8798C63.289 11.6945 61.6297 10.8086 60.0297 10.8086C57.9556 10.8086 56.5334 11.9308 56.0593 13.8798H63.763Z" fill="white"/>
<path d="M86.6372 15.2973C86.6372 19.8452 83.3187 23.3299 79.2298 23.3299C77.0372 23.3299 75.3779 22.503 74.3113 21.0855V28.9409H70.4001V7.67819H74.3113V9.45009C75.3779 8.03257 77.0372 7.20569 79.2298 7.20569C83.3187 7.26475 86.6372 10.7495 86.6372 15.2973ZM82.7261 15.2973C82.7261 12.7576 80.9483 10.9857 78.5187 10.9857C76.1483 10.9857 74.3113 12.6986 74.3113 15.2973C74.3113 17.8371 76.089 19.6089 78.5187 19.6089C80.9483 19.5499 82.7261 17.8371 82.7261 15.2973Z" fill="white"/>
<path d="M97.0073 19.7862C98.5481 19.7862 99.7333 19.1365 100.385 18.2505L103.526 20.0815C102.104 22.1487 99.8518 23.3299 96.8888 23.3299C91.7925 23.3299 88.5925 19.8452 88.5925 15.2974C88.5925 10.7495 91.8518 7.26477 96.5925 7.26477C101.096 7.26477 104.237 10.8086 104.237 15.2974C104.237 15.888 104.178 16.4196 104.059 16.8921H92.6222C93.274 18.9002 94.9333 19.7862 97.0073 19.7862ZM100.385 13.8798C99.911 11.6945 98.2518 10.8086 96.6518 10.8086C94.5777 10.8086 93.1555 11.9308 92.6814 13.8798H100.385Z" fill="white"/>
<path d="M140.326 15.2973C140.326 19.8452 137.007 23.3299 132.919 23.3299C130.726 23.3299 129.067 22.503 128 21.0855V28.9409H124.089V7.67819H128V9.45009C129.067 8.03257 130.726 7.20569 132.919 7.20569C137.007 7.26475 140.326 10.7495 140.326 15.2973ZM136.415 15.2973C136.415 12.7576 134.637 10.9857 132.207 10.9857C129.837 10.9857 128 12.6986 128 15.2973C128 17.8371 129.778 19.6089 132.207 19.6089C134.637 19.5499 136.415 17.8371 136.415 15.2973Z" fill="white"/>
<path d="M150.696 19.7862C152.237 19.7862 153.422 19.1365 154.074 18.2505L157.215 20.0815C155.793 22.1487 153.541 23.33 150.578 23.33C145.481 23.33 142.281 19.8452 142.281 15.2974C142.281 10.7495 145.541 7.26478 150.281 7.26478C154.785 7.26478 157.926 10.8086 157.926 15.2974C157.926 15.888 157.867 16.4196 157.748 16.8921H146.311C146.963 18.9002 148.622 19.7862 150.696 19.7862ZM145.185 4.01631C145.185 2.89411 146.133 1.9491 147.259 1.9491C148.385 1.9491 149.274 2.89411 149.274 4.01631C149.274 5.13851 148.385 6.08352 147.259 6.08352C146.133 6.08352 145.185 5.13851 145.185 4.01631ZM154.074 13.8799C153.6 11.6945 151.941 10.8086 150.341 10.8086C148.267 10.8086 146.844 11.9308 146.37 13.8799H154.074ZM150.933 4.01631C150.933 2.89411 151.881 1.9491 153.007 1.9491C154.133 1.9491 155.022 2.89411 155.022 4.01631C155.022 5.13851 154.133 6.08352 153.007 6.08352C151.881 6.08352 150.933 5.13851 150.933 4.01631Z" fill="white"/>
<path d="M159.822 15.2974C159.822 10.7495 163.2 7.26477 167.822 7.26477C170.785 7.26477 173.393 8.85948 174.637 11.1629L171.259 13.1711C170.667 11.9308 169.363 11.1039 167.822 11.1039C165.511 11.1039 163.733 12.8167 163.733 15.2974C163.733 17.7189 165.452 19.4318 167.822 19.4318C169.422 19.4318 170.726 18.664 171.319 17.4236L174.696 19.3727C173.393 21.7352 170.785 23.3299 167.822 23.3299C163.2 23.3299 159.822 19.8452 159.822 15.2974Z" fill="white"/>
<path d="M191.111 15.2974C191.111 10.7495 194.667 7.26477 199.111 7.26477C203.556 7.26477 207.17 10.7495 207.17 15.2974C207.17 19.8452 203.615 23.3299 199.111 23.3299C194.667 23.3299 191.111 19.8452 191.111 15.2974ZM203.259 15.2974C203.259 12.8167 201.481 11.1039 199.111 11.1039C196.8 11.1039 195.022 12.8167 195.022 15.2974C195.022 17.778 196.8 19.4908 199.111 19.4908C201.481 19.4908 203.259 17.778 203.259 15.2974Z" fill="white"/>
<path d="M116.978 22.9165H121.541L115.733 15.1792L121.363 7.67822H116.681L112.296 13.8799H110.993V7.67822H107.022V22.9165H110.993V16.8921H112.593L116.978 22.9165Z" fill="white"/>
<path d="M219.437 22.9165H224L218.193 15.1792L223.822 7.67822H219.141L214.756 13.8799H213.393V7.67822H209.481V22.9165H213.393V16.8921H215.052L219.437 22.9165Z" fill="white"/>
<path d="M49.4223 22.9165H45.2742V5.90633H37.7482V22.9165H33.6001V1.9491H49.4223V22.9165Z" fill="white"/>
</g>
<defs>
<clipPath id="clip0">
<rect width="224" height="29" fill="white"/>
</clipPath>
</defs>
</svg>
